<svg width="18" height="16" viewBox="0 0 18 16" fill="none" xmlns="http://www.w3.org/2000/svg">
<g id="Group 1000002343">
<path id="Vector" d="M5.24059 8.31938C5.23971 7.67324 5.39882 7.03692 5.70373 6.46723L6.02168 5.87318L6.49811 6.34962L7.44603 7.29754L7.66165 7.51316L7.56866 7.80356C7.47426 8.09838 7.46289 8.4135 7.5358 8.71434C7.60871 9.01519 7.76308 9.29015 7.98197 9.50904C8.20086 9.72793 8.47581 9.8823 8.77666 9.9552C9.07751 10.0281 9.39263 10.0167 9.68744 9.92235L9.97785 9.82936L10.1935 10.045L11.1414 10.9929L11.6184 11.4699L11.0233 11.7875C10.4242 12.1073 9.7526 12.2665 9.07377 12.2495C8.39494 12.2325 7.73207 12.04 7.14975 11.6908C6.56743 11.3415 6.08551 10.8473 5.75093 10.2564C5.41642 9.66563 5.2406 8.99829 5.24059 8.31938ZM5.24059 8.31938C5.24059 8.31951 5.24059 8.31964 5.24059 8.31977L5.74059 8.31904L5.24059 8.31899C5.24059 8.31912 5.24059 8.31925 5.24059 8.31938ZM12.9874 13.3283L13.3113 13.1628L13.5685 13.4201L15.4567 15.3087L15.8028 14.9629L2.40486 1.56573L2.05919 1.91139L3.87831 3.72982L4.2507 4.10207L3.8597 4.45473C2.88067 5.33776 2.0295 6.52408 1.31453 8.02992C1.27204 8.12003 1.25 8.21843 1.25 8.31806C1.25 8.41783 1.2721 8.51637 1.3147 8.60658C2.20938 10.4999 3.31911 11.8869 4.62889 12.8012C5.93455 13.7126 7.46809 14.1749 9.24995 14.1749C10.6473 14.1749 11.8896 13.8894 12.9874 13.3283ZM15.2134 15.5518L15.2137 15.5515C15.2136 15.5516 15.2135 15.5517 15.2134 15.5518L15.2134 15.5518Z" stroke="#1E1E1E"/>
<path id="Vector_2" d="M6.44741 2.91071L8.07871 4.54201C8.69891 4.36283 9.35548 4.33862 9.99018 4.47391C10.7331 4.63226 11.4142 5.00234 11.9513 5.53943C12.4884 6.07652 12.8584 6.75765 13.0168 7.50052C13.1521 8.13523 13.1279 8.7918 12.9487 9.41201L15.1839 11.6474C15.9376 10.8378 16.6062 9.82744 17.1854 8.60782C17.2279 8.51772 17.2499 8.41933 17.2499 8.31971C17.2499 8.21995 17.2278 8.12143 17.1852 8.03123C16.2905 6.13784 15.1808 4.75088 13.871 3.83658C12.5654 2.92517 11.0318 2.46289 9.24996 2.46289C8.23507 2.46289 7.30225 2.61357 6.44741 2.91071Z" stroke="#1E1E1E"/>
</g>
</svg>
