<svg width="17" height="16" viewBox="0 0 17 16" fill="none" xmlns="http://www.w3.org/2000/svg">
<path d="M5.90055 0.933594L4.46253 2.50521H1.97152C1.10713 2.50521 0.399902 3.21244 0.399902 4.07682V13.5065C0.399902 14.3709 1.10713 15.0781 1.97152 15.0781H14.5444C15.4088 15.0781 16.116 14.3709 16.116 13.5065V4.07682C16.116 3.21244 15.4088 2.50521 14.5444 2.50521H12.0534L10.6154 0.933594H5.90055ZM8.25797 12.7207C6.08915 12.7207 4.32894 10.9605 4.32894 8.79167C4.32894 6.62284 6.08915 4.86263 8.25797 4.86263C10.4268 4.86263 12.187 6.62284 12.187 8.79167C12.187 10.9605 10.4268 12.7207 8.25797 12.7207Z" fill="#292929"/>
</svg>
