<svg width="16" height="16" viewBox="0 0 16 16" fill="none" xmlns="http://www.w3.org/2000/svg">
<path d="M8 0.878662C6.58154 0.878662 5.19493 1.29929 4.01552 2.08734C2.83611 2.8754 1.91688 3.99549 1.37405 5.30598C0.831232 6.61647 0.689205 8.05849 0.965934 9.4497C1.24266 10.8409 1.92572 12.1188 2.92872 13.1218C3.93173 14.1248 5.20963 14.8079 6.60084 15.0846C7.99205 15.3613 9.43407 15.2193 10.7446 14.6765C12.055 14.1337 13.1751 13.2144 13.9632 12.035C14.7513 10.8556 15.1719 9.469 15.1719 8.05054C15.1696 6.14912 14.4133 4.32623 13.0688 2.98172C11.7243 1.63722 9.90142 0.880895 8 0.878662ZM8 14.3787C6.74842 14.3787 5.52494 14.0075 4.48429 13.3122C3.44363 12.6168 2.63254 11.6285 2.15358 10.4722C1.67462 9.31589 1.5493 8.04352 1.79347 6.81598C2.03764 5.58845 2.64034 4.46088 3.52534 3.57588C4.41035 2.69087 5.53791 2.08818 6.76545 1.84401C7.99298 1.59983 9.26536 1.72515 10.4217 2.20411C11.578 2.68307 12.5663 3.49416 13.2616 4.53482C13.957 5.57547 14.3281 6.79895 14.3281 8.05054C14.3263 9.72829 13.659 11.3368 12.4726 12.5231C11.2863 13.7095 9.67776 14.3768 8 14.3787ZM5.60938 8.05054C5.60938 8.55229 5.76725 9.04132 6.06063 9.44836C6.35401 9.8554 6.76802 10.1598 7.24402 10.3185C7.72002 10.4772 8.23388 10.482 8.71281 10.3324C9.19174 10.1828 9.61145 9.88631 9.9125 9.48491C9.97973 9.3954 10.0798 9.33626 10.1906 9.32051C10.3014 9.30475 10.414 9.33366 10.5035 9.40089C10.593 9.46811 10.6521 9.56814 10.6679 9.67898C10.6836 9.7898 10.6547 9.90235 10.5875 9.99187C10.1801 10.5348 9.61222 10.9357 8.96429 11.138C8.31636 11.3402 7.62122 11.3335 6.97731 11.1188C6.33341 10.9041 5.77338 10.4922 5.37654 9.94153C4.9797 9.39086 4.76616 8.7293 4.76616 8.05054C4.76616 7.37177 4.9797 6.71021 5.37654 6.15954C5.77338 5.60887 6.33341 5.19701 6.97731 4.98228C7.62122 4.76755 8.31636 4.76083 8.96429 4.96309C9.61222 5.16534 10.1801 5.56631 10.5875 6.10921C10.6547 6.19872 10.6836 6.31127 10.6679 6.4221C10.6521 6.53293 10.593 6.63296 10.5035 6.70019C10.414 6.76741 10.3014 6.79633 10.1906 6.78057C10.0798 6.76481 9.97973 6.70567 9.9125 6.61616C9.61145 6.21476 9.19174 5.91826 8.71281 5.76865C8.23388 5.61905 7.72002 5.62392 7.24402 5.78259C6.76802 5.94126 6.35401 6.24567 6.06063 6.65271C5.76725 7.05976 5.60938 7.54879 5.60938 8.05054Z" fill="white"/>
</svg>
